<svg width="17" height="16" viewBox="0 0 17 16" fill="none" xmlns="http://www.w3.org/2000/svg">
<g clip-path="url(#clip0_2106_608)">
<path d="M16.1708 3.44069V12.9928C16.1708 13.5349 15.7577 13.948 15.2156 13.948H14.2604V5.27899L8.52916 9.39594L2.79791 5.27899V13.948H1.84271C1.30062 13.948 0.887497 13.5349 0.887497 12.9928V3.44069C0.887497 3.16941 0.989704 2.93061 1.16116 2.76154C1.25041 2.67212 1.35676 2.6016 1.47385 2.55417C1.59094 2.50674 1.71639 2.48338 1.84271 2.48548H2.16127L8.52916 7.10248L14.8971 2.48548H15.2156C15.4869 2.48548 15.7257 2.58769 15.8972 2.76154C16.0686 2.93061 16.1708 3.16941 16.1708 3.44069Z" fill="#090909"/>
</g>
<defs>
<clipPath id="clip0_2106_608">
<rect width="15.2833" height="15.2833" fill="white" transform="translate(0.887451 0.575195)"/>
</clipPath>
</defs>
</svg>
