<svg width="28" height="28" viewBox="0 0 28 28" fill="none" xmlns="http://www.w3.org/2000/svg">
<g clip-path="url(#clip0_2106_612)">
<path d="M19.3041 7.05208C19.3041 6.69017 19.4479 6.34309 19.7038 6.08718C19.9597 5.83127 20.3068 5.6875 20.6687 5.6875C21.0306 5.6875 21.3777 5.83127 21.6336 6.08718C21.8895 6.34309 22.0333 6.69017 22.0333 7.05208C22.0333 7.41399 21.8895 7.76108 21.6336 8.01699C21.3777 8.2729 21.0306 8.41667 20.6687 8.41667C20.3068 8.41667 19.9597 8.2729 19.7038 8.01699C19.4479 7.76108 19.3041 7.41399 19.3041 7.05208Z" fill="#C84A2A"/>
<path fill-rule="evenodd" clip-rule="evenodd" d="M13.8458 7.39355C12.1267 7.39355 10.4781 8.07645 9.2625 9.29202C8.04693 10.5076 7.36403 12.1563 7.36403 13.8753C7.36403 15.5944 8.04693 17.2431 9.2625 18.4586C10.4781 19.6742 12.1267 20.3571 13.8458 20.3571C15.5649 20.3571 17.2135 19.6742 18.4291 18.4586C19.6447 17.2431 20.3276 15.5944 20.3276 13.8753C20.3276 12.1563 19.6447 10.5076 18.4291 9.29202C17.2135 8.07645 15.5649 7.39355 13.8458 7.39355ZM9.4109 13.8753C9.4109 12.6991 9.87815 11.5711 10.7099 10.7394C11.5416 9.90768 12.6696 9.44043 13.8458 9.44043C15.022 9.44043 16.15 9.90768 16.9817 10.7394C17.8134 11.5711 18.2807 12.6991 18.2807 13.8753C18.2807 15.0515 17.8134 16.1796 16.9817 17.0113C16.15 17.843 15.022 18.3102 13.8458 18.3102C12.6696 18.3102 11.5416 17.843 10.7099 17.0113C9.87815 16.1796 9.4109 15.0515 9.4109 13.8753Z" fill="#C84A2A"/>
<path fill-rule="evenodd" clip-rule="evenodd" d="M21.0208 1.36541C16.2521 0.83653 11.4395 0.83653 6.67084 1.36541C3.92529 1.67244 1.70785 3.83531 1.3858 6.59449C0.821014 11.4314 0.821014 16.3177 1.3858 21.1546C1.70785 23.9138 3.92393 26.0766 6.67084 26.3837C11.4396 26.9114 16.252 26.9114 21.0208 26.3837C23.7663 26.0766 25.9838 23.9138 26.3058 21.1546C26.8706 16.3177 26.8706 11.4314 26.3058 6.59449C25.9838 3.83531 23.7677 1.67244 21.0208 1.36541ZM6.89736 3.39864C11.5155 2.88652 16.1761 2.88652 20.7943 3.39864C22.6092 3.60333 24.0625 5.03477 24.274 6.8333C24.8214 11.5115 24.8214 16.2376 24.274 20.9158C24.1646 21.796 23.7616 22.6136 23.1302 23.2366C22.4988 23.8596 21.6759 24.2515 20.7943 24.3491C16.1761 24.8612 11.5155 24.8612 6.89736 24.3491C6.01575 24.2515 5.19279 23.8596 4.5614 23.2366C3.93001 22.6136 3.52707 21.796 3.41767 20.9158C2.87028 16.2376 2.87028 11.5115 3.41767 6.8333C3.52707 5.95308 3.93001 5.13545 4.5614 4.51248C5.19279 3.88951 6.01575 3.49622 6.89736 3.39864Z" fill="#C84A2A"/>
</g>
<defs>
<clipPath id="clip0_2106_612">
<rect width="27.2917" height="27.2917" fill="white" transform="translate(0.199951 0.229492)"/>
</clipPath>
</defs>
</svg>
